<svg width="491" height="414" viewBox="0 0 491 414" fill="none" xmlns="http://www.w3.org/2000/svg">
<path d="M490.629 0C477.051 19.0781 463.474 38.243 424.183 47.0883C384.994 55.9336 319.989 54.5461 333.874 75.4453C347.657 96.3445 440.434 139.53 448.56 156.614C456.686 173.698 380.263 164.592 348.274 169.535C316.286 174.478 328.834 193.47 340.251 220.179C351.669 246.802 362.057 281.229 346.937 292.502C331.817 303.689 291.189 291.809 263.623 289.641C236.057 287.473 221.554 295.191 205.2 299.613C188.846 304.123 170.64 305.423 155.829 317.304C141.12 329.098 129.909 351.558 113.657 357.715C97.4057 363.785 76.0114 353.639 56.2629 360.23C36.4114 366.82 18.2057 390.234 0 413.648V0H490.629Z" fill="#29E0E8"/>
</svg>
