<svg width="491" height="414" viewBox="0 0 491 414" fill="none" xmlns="http://www.w3.org/2000/svg">
<path d="M0.371094 414C54.7825 402.727 109.194 391.54 97.3654 370.294C85.5368 349.134 7.46822 318.002 17.1368 306.902C26.8054 295.889 124.211 304.908 163.194 299.531C202.074 294.068 182.531 274.209 191.685 268.312C200.84 262.416 238.794 270.567 232.314 246.633C225.834 222.698 175.125 166.678 174.611 147.253C174.097 127.915 223.983 145.172 259.365 159.48C294.748 173.702 315.628 185.063 323.342 169.193C331.057 153.323 325.503 110.311 337.537 101.552C349.468 92.7938 378.988 118.376 397.811 120.804C416.634 123.319 424.863 102.593 438.645 78.6586C452.428 54.7242 471.663 27.5812 491 0.351562V414H0.371094Z" fill="#29E0E8"/>
</svg>
