<svg width="303" height="353" viewBox="0 0 303 353" fill="none" xmlns="http://www.w3.org/2000/svg">
<path d="M302.291 1.97677C293.828 18.1104 285.364 34.3176 261.131 41.6648C236.96 49.0124 196.955 47.5732 205.386 65.3627C213.754 83.1518 270.62 120.17 275.527 134.699C280.434 149.227 233.444 141.193 213.727 145.259C194.01 149.324 201.628 165.489 208.507 188.199C215.387 210.835 221.59 240.089 212.221 249.594C202.852 259.026 177.91 248.781 160.955 246.83C144 244.88 135.03 251.37 124.939 255.057C114.847 258.818 103.634 259.848 94.4513 269.869C85.3323 279.817 78.3067 298.83 68.2693 303.989C58.2325 309.075 45.1201 300.379 32.9278 305.892C20.6722 311.404 9.33608 331.198 -2.00002 350.992L0.297485 0L302.291 1.97677Z" fill="#29E0E8"/>
</svg>
