<svg width="246" height="294" viewBox="0 0 246 294" fill="none" xmlns="http://www.w3.org/2000/svg">
<path d="M0.281852 293.64C7.88954 280.115 15.4974 266.529 37.4331 260.303C59.3114 254.078 95.575 255.151 87.8646 240.297C80.2116 225.442 28.527 194.659 24.0234 182.52C19.5198 170.382 62.1396 176.95 79.9943 173.485C97.849 170.019 90.8813 156.521 84.5581 137.545C78.2348 118.63 72.4989 94.177 80.9538 86.1949C89.4085 78.2743 112.054 86.7634 127.429 88.34C142.804 89.9166 150.908 84.4576 160.04 81.3404C169.172 78.1616 179.331 77.2631 187.615 68.8496C195.841 60.4976 202.135 44.5689 211.212 40.2203C220.289 35.9333 232.207 43.165 243.236 38.5134C254.322 33.862 264.52 17.2657 274.717 0.669424L273.999 294.309L0.281852 293.64Z" fill="#29E0E8"/>
</svg>
