<svg width="290" height="272" viewBox="0 0 290 272" fill="none" xmlns="http://www.w3.org/2000/svg">
<path d="M-1.76847 2.26561C11.6091 9.70141 25.0473 17.1367 31.3934 38.9094C37.7391 60.625 37.0537 96.7346 51.583 88.9085C66.1127 81.1395 95.8566 29.3776 107.747 24.7713C119.638 20.165 113.614 62.6576 117.205 80.3959C120.795 98.1342 133.998 91.0611 152.594 84.5741C171.129 78.0876 195.118 72.1296 203.054 80.465C210.929 88.8009 202.812 111.43 201.419 126.751C200.026 142.072 205.477 150.084 208.636 159.142C211.855 168.2 212.842 178.304 221.201 186.464C229.498 194.569 245.226 200.672 249.595 209.664C253.904 218.656 246.914 230.593 251.601 241.525C256.288 252.514 272.713 262.496 289.138 272.479L0.369324 274.744L-1.76847 2.26561Z" fill="#29E0E8"/>
</svg>
