<svg width="349" height="346" viewBox="0 0 349 346" fill="none" xmlns="http://www.w3.org/2000/svg">
<path d="M349.668 344.426C340.044 306.26 330.493 268.093 312.618 276.456C294.817 284.818 268.765 339.708 259.389 332.952C250.087 326.195 257.463 257.79 252.843 230.439C248.15 203.16 231.462 216.934 226.472 210.524C221.482 204.113 228.264 177.447 208.111 182.062C187.959 186.677 140.873 222.429 124.507 222.844C108.214 223.259 122.64 188.191 134.615 163.312C146.517 138.434 156.041 123.744 142.651 118.373C129.262 113.001 93.0323 117.019 85.6246 108.595C78.2172 100.243 99.7047 79.4493 101.707 66.2287C103.783 53.008 86.3006 47.2887 66.1018 37.679C45.903 28.0694 22.9881 14.6417 -0.000143764 1.14208L348.54 3.27894e-05L349.668 344.426Z" fill="#29E0E8"/>
</svg>
